<?xml version="1.0" standalone="no"?><svg xmlns="http://www.w3.org/2000/svg" viewBox="0 0 1440 320"><path fill="#E2D1C3" fill-opacity="1" d="M0,192L24,186.7C48,181,96,171,144,165.3C192,160,240,160,288,160C336,160,384,160,432,138.7C480,117,528,75,576,53.3C624,32,672,32,720,48C768,64,816,96,864,90.7C912,85,960,43,1008,64C1056,85,1104,171,1152,176C1200,181,1248,107,1296,85.3C1344,64,1392,96,1416,112L1440,128L1440,0L1416,0C1392,0,1344,0,1296,0C1248,0,1200,0,1152,0C1104,0,1056,0,1008,0C960,0,912,0,864,0C816,0,768,0,720,0C672,0,624,0,576,0C528,0,480,0,432,0C384,0,336,0,288,0C240,0,192,0,144,0C96,0,48,0,24,0L0,0Z"></path></svg>